<svg width="22" height="21" viewBox="0 0 22 21" fill="none" xmlns="http://www.w3.org/2000/svg">
<path d="M20.8853 17.5856C21.6663 18.3667 21.6663 19.633 20.8853 20.4141C20.1042 21.1951 18.8379 21.1951 18.0569 20.4141L10.7996 13.1568L3.54214 20.4142C2.76109 21.1952 1.49476 21.1952 0.713716 20.4142C-0.0673325 19.6331 -0.0673324 18.3668 0.713716 17.5858L7.97114 10.3283L1.0863 3.44351C0.305253 2.66246 0.305252 1.39613 1.0863 0.615083C1.86735 -0.165965 3.13368 -0.165965 3.91473 0.615083L10.7996 7.49992L17.6843 0.615206C18.4653 -0.165842 19.7317 -0.165843 20.5127 0.615206C21.2938 1.39625 21.2938 2.66258 20.5127 3.44363L13.628 10.3283L20.8853 17.5856Z" fill="white"/>
</svg>
